<svg version="1.1" xmlns="http://www.w3.org/2000/svg" xmlns:xlink="http://www.w3.org/1999/xlink" width="836" height="764"><defs/><g><text fill="#eeeeee" stroke="none" font-family="Arial" font-size="24px" font-style="normal" font-weight="normal" text-decoration="none" x="0" y="0"></text><text fill="#eeeeee" stroke="none" font-family="Arial" font-size="24px" font-style="normal" font-weight="normal" text-decoration="none" x="0" y="30"></text><text fill="#eeeeee" stroke="none" font-family="Arial" font-size="24px" font-style="normal" font-weight="normal" text-decoration="none" x="0" y="60"></text><text fill="#eeeeee" stroke="none" font-family="Arial" font-size="24px" font-style="normal" font-weight="normal" text-decoration="none" x="0" y="90"></text><text fill="#eeeeee" stroke="none" font-family="Arial" font-size="24px" font-style="normal" font-weight="normal" text-decoration="none" x="0" y="120"></text><text fill="#eeeeee" stroke="none" font-family="Arial" font-size="24px" font-style="normal" font-weight="normal" text-decoration="none" x="0" y="150"></text><text fill="#eeeeee" stroke="none" font-family="Arial" font-size="24px" font-style="normal" font-weight="normal" text-decoration="none" x="0" y="180"></text><text fill="#eeeeee" stroke="none" font-family="Arial" font-size="24px" font-style="normal" font-weight="normal" text-decoration="none" x="0" y="210"></text><text fill="#eeeeee" stroke="none" font-family="Arial" font-size="24px" font-style="normal" font-weight="normal" text-decoration="none" x="0" y="240"></text><text fill="#eeeeee" stroke="none" font-family="Arial" font-size="24px" font-style="normal" font-weight="normal" text-decoration="none" x="0" y="270"></text><text fill="#eeeeee" stroke="none" font-family="Arial" font-size="24px" font-style="normal" font-weight="normal" text-decoration="none" x="0" y="300"></text><text fill="#eeeeee" stroke="none" font-family="Arial" font-size="24px" font-style="normal" font-weight="normal" text-decoration="none" x="0" y="330"></text><text fill="#eeeeee" stroke="none" font-family="Arial" font-size="24px" font-style="normal" font-weight="normal" text-decoration="none" x="0" y="360"></text><text fill="#eeeeee" stroke="none" font-family="Arial" font-size="24px" font-style="normal" font-weight="normal" text-decoration="none" x="0" y="390"></text><text fill="#eeeeee" stroke="none" font-family="Arial" font-size="24px" font-style="normal" font-weight="normal" text-decoration="none" x="0" y="420"></text><text fill="#eeeeee" stroke="none" font-family="Arial" font-size="24px" font-style="normal" font-weight="normal" text-decoration="none" x="0" y="450"></text><text fill="#eeeeee" stroke="none" font-family="Arial" font-size="24px" font-style="normal" font-weight="normal" text-decoration="none" x="0" y="480"></text><text fill="#eeeeee" stroke="none" font-family="Arial" font-size="24px" font-style="normal" font-weight="normal" text-decoration="none" x="0" y="510"></text><text fill="#eeeeee" stroke="none" font-family="Arial" font-size="24px" font-style="normal" font-weight="normal" text-decoration="none" x="0" y="540"></text><text fill="#eeeeee" stroke="none" font-family="Arial" font-size="24px" font-style="normal" font-weight="normal" text-decoration="none" x="0" y="570"></text><text fill="#eeeeee" stroke="none" font-family="Arial" font-size="24px" font-style="normal" font-weight="normal" text-decoration="none" x="0" y="600"></text><text fill="#eeeeee" stroke="none" font-family="Arial" font-size="24px" font-style="normal" font-weight="normal" text-decoration="none" x="0" y="630"></text><text fill="#eeeeee" stroke="none" font-family="Arial" font-size="24px" font-style="normal" font-weight="normal" text-decoration="none" x="0" y="660"></text><text fill="#eeeeee" stroke="none" font-family="Arial" font-size="24px" font-style="normal" font-weight="normal" text-decoration="none" x="0" y="690"></text><text fill="#eeeeee" stroke="none" font-family="Arial" font-size="24px" font-style="normal" font-weight="normal" text-decoration="none" x="0" y="720"></text><text fill="#eeeeee" stroke="none" font-family="Arial" font-size="24px" font-style="normal" font-weight="normal" text-decoration="none" x="0" y="750"></text><text fill="#eeeeee" stroke="none" font-family="Arial" font-size="24px" font-style="normal" font-weight="normal" text-decoration="none" x="200" y="0"></text><text fill="#eeeeee" stroke="none" font-family="Arial" font-size="24px" font-style="normal" font-weight="normal" text-decoration="none" x="200" y="30"></text><text fill="#eeeeee" stroke="none" font-family="Arial" font-size="24px" font-style="normal" font-weight="normal" text-decoration="none" x="200" y="60"></text><text fill="#eeeeee" stroke="none" font-family="Arial" font-size="24px" font-style="normal" font-weight="normal" text-decoration="none" x="200" y="90"></text><text fill="#eeeeee" stroke="none" font-family="Arial" font-size="24px" font-style="normal" font-weight="normal" text-decoration="none" x="200" y="120"></text><text fill="#eeeeee" stroke="none" font-family="Arial" font-size="24px" font-style="normal" font-weight="normal" text-decoration="none" x="200" y="150"></text><text fill="#eeeeee" stroke="none" font-family="Arial" font-size="24px" font-style="normal" font-weight="normal" text-decoration="none" x="200" y="180"></text><text fill="#eeeeee" stroke="none" font-family="Arial" font-size="24px" font-style="normal" font-weight="normal" text-decoration="none" x="200" y="210"></text><text fill="#eeeeee" stroke="none" font-family="Arial" font-size="24px" font-style="normal" font-weight="normal" text-decoration="none" x="200" y="240"></text><text fill="#eeeeee" stroke="none" font-family="Arial" font-size="24px" font-style="normal" font-weight="normal" text-decoration="none" x="200" y="270"></text><text fill="#eeeeee" stroke="none" font-family="Arial" font-size="24px" font-style="normal" font-weight="normal" text-decoration="none" x="200" y="300"></text><text fill="#eeeeee" stroke="none" font-family="Arial" font-size="24px" font-style="normal" font-weight="normal" text-decoration="none" x="200" y="330"></text><text fill="#eeeeee" stroke="none" font-family="Arial" font-size="24px" font-style="normal" font-weight="normal" text-decoration="none" x="200" y="360"></text><text fill="#eeeeee" stroke="none" font-family="Arial" font-size="24px" font-style="normal" font-weight="normal" text-decoration="none" x="200" y="390"></text><text fill="#eeeeee" stroke="none" font-family="Arial" font-size="24px" font-style="normal" font-weight="normal" text-decoration="none" x="200" y="420"></text><text fill="#eeeeee" stroke="none" font-family="Arial" font-size="24px" font-style="normal" font-weight="normal" text-decoration="none" x="200" y="450"></text><text fill="#eeeeee" stroke="none" font-family="Arial" font-size="24px" font-style="normal" font-weight="normal" text-decoration="none" x="200" y="480"></text><text fill="#eeeeee" stroke="none" font-family="Arial" font-size="24px" font-style="normal" font-weight="normal" text-decoration="none" x="200" y="510"></text><text fill="#eeeeee" stroke="none" font-family="Arial" font-size="24px" font-style="normal" font-weight="normal" text-decoration="none" x="200" y="540"></text><text fill="#eeeeee" stroke="none" font-family="Arial" font-size="24px" font-style="normal" font-weight="normal" text-decoration="none" x="200" y="570"></text><text fill="#eeeeee" stroke="none" font-family="Arial" font-size="24px" font-style="normal" font-weight="normal" text-decoration="none" x="200" y="600"></text><text fill="#eeeeee" stroke="none" font-family="Arial" font-size="24px" font-style="normal" font-weight="normal" text-decoration="none" x="200" y="630"></text><text fill="#eeeeee" stroke="none" font-family="Arial" font-size="24px" font-style="normal" font-weight="normal" text-decoration="none" x="200" y="660"></text><text fill="#eeeeee" stroke="none" font-family="Arial" font-size="24px" font-style="normal" font-weight="normal" text-decoration="none" x="200" y="690"></text><text fill="#eeeeee" stroke="none" font-family="Arial" font-size="24px" font-style="normal" font-weight="normal" text-decoration="none" x="200" y="720"></text><text fill="#eeeeee" stroke="none" font-family="Arial" font-size="24px" font-style="normal" font-weight="normal" text-decoration="none" x="200" y="750"></text><text fill="#eeeeee" stroke="none" font-family="Arial" font-size="24px" font-style="normal" font-weight="normal" text-decoration="none" x="400" y="0"></text><text fill="#eeeeee" stroke="none" font-family="Arial" font-size="24px" font-style="normal" font-weight="normal" text-decoration="none" x="400" y="30"></text><text fill="#eeeeee" stroke="none" font-family="Arial" font-size="24px" font-style="normal" font-weight="normal" text-decoration="none" x="400" y="60"></text><text fill="#eeeeee" stroke="none" font-family="Arial" font-size="24px" font-style="normal" font-weight="normal" text-decoration="none" x="400" y="90"></text><text fill="#eeeeee" stroke="none" font-family="Arial" font-size="24px" font-style="normal" font-weight="normal" text-decoration="none" x="400" y="120"></text><text fill="#eeeeee" stroke="none" font-family="Arial" font-size="24px" font-style="normal" font-weight="normal" text-decoration="none" x="400" y="150"></text><text fill="#eeeeee" stroke="none" font-family="Arial" font-size="24px" font-style="normal" font-weight="normal" text-decoration="none" x="400" y="180"></text><text fill="#eeeeee" stroke="none" font-family="Arial" font-size="24px" font-style="normal" font-weight="normal" text-decoration="none" x="400" y="210"></text><text fill="#eeeeee" stroke="none" font-family="Arial" font-size="24px" font-style="normal" font-weight="normal" text-decoration="none" x="400" y="240"></text><text fill="#eeeeee" stroke="none" font-family="Arial" font-size="24px" font-style="normal" font-weight="normal" text-decoration="none" x="400" y="270"></text><text fill="#eeeeee" stroke="none" font-family="Arial" font-size="24px" font-style="normal" font-weight="normal" text-decoration="none" x="400" y="300"></text><text fill="#eeeeee" stroke="none" font-family="Arial" font-size="24px" font-style="normal" font-weight="normal" text-decoration="none" x="400" y="330"></text><text fill="#eeeeee" stroke="none" font-family="Arial" font-size="24px" font-style="normal" font-weight="normal" text-decoration="none" x="400" y="360"></text><text fill="#eeeeee" stroke="none" font-family="Arial" font-size="24px" font-style="normal" font-weight="normal" text-decoration="none" x="400" y="390"></text><text fill="#eeeeee" stroke="none" font-family="Arial" font-size="24px" font-style="normal" font-weight="normal" text-decoration="none" x="400" y="420"></text><text fill="#eeeeee" stroke="none" font-family="Arial" font-size="24px" font-style="normal" font-weight="normal" text-decoration="none" x="400" y="450"></text><text fill="#eeeeee" stroke="none" font-family="Arial" font-size="24px" font-style="normal" font-weight="normal" text-decoration="none" x="400" y="480"></text><text fill="#eeeeee" stroke="none" font-family="Arial" font-size="24px" font-style="normal" font-weight="normal" text-decoration="none" x="400" y="510"></text><text fill="#eeeeee" stroke="none" font-family="Arial" font-size="24px" font-style="normal" font-weight="normal" text-decoration="none" x="400" y="540"></text><text fill="#eeeeee" stroke="none" font-family="Arial" font-size="24px" font-style="normal" font-weight="normal" text-decoration="none" x="400" y="570"></text><text fill="#eeeeee" stroke="none" font-family="Arial" font-size="24px" font-style="normal" font-weight="normal" text-decoration="none" x="400" y="600"></text><text fill="#eeeeee" stroke="none" font-family="Arial" font-size="24px" font-style="normal" font-weight="normal" text-decoration="none" x="400" y="630"></text><text fill="#eeeeee" stroke="none" font-family="Arial" font-size="24px" font-style="normal" font-weight="normal" text-decoration="none" x="400" y="660"></text><text fill="#eeeeee" stroke="none" font-family="Arial" font-size="24px" font-style="normal" font-weight="normal" text-decoration="none" x="400" y="690"></text><text fill="#eeeeee" stroke="none" font-family="Arial" font-size="24px" font-style="normal" font-weight="normal" text-decoration="none" x="400" y="720"></text><text fill="#eeeeee" stroke="none" font-family="Arial" font-size="24px" font-style="normal" font-weight="normal" text-decoration="none" x="400" y="750"></text><text fill="#eeeeee" stroke="none" font-family="Arial" font-size="24px" font-style="normal" font-weight="normal" text-decoration="none" x="600" y="0"></text><text fill="#eeeeee" stroke="none" font-family="Arial" font-size="24px" font-style="normal" font-weight="normal" text-decoration="none" x="600" y="30"></text><text fill="#eeeeee" stroke="none" font-family="Arial" font-size="24px" font-style="normal" font-weight="normal" text-decoration="none" x="600" y="60"></text><text fill="#eeeeee" stroke="none" font-family="Arial" font-size="24px" font-style="normal" font-weight="normal" text-decoration="none" x="600" y="90"></text><text fill="#eeeeee" stroke="none" font-family="Arial" font-size="24px" font-style="normal" font-weight="normal" text-decoration="none" x="600" y="120"></text><text fill="#eeeeee" stroke="none" font-family="Arial" font-size="24px" font-style="normal" font-weight="normal" text-decoration="none" x="600" y="150"></text><text fill="#eeeeee" stroke="none" font-family="Arial" font-size="24px" font-style="normal" font-weight="normal" text-decoration="none" x="600" y="180"></text><text fill="#eeeeee" stroke="none" font-family="Arial" font-size="24px" font-style="normal" font-weight="normal" text-decoration="none" x="600" y="210"></text><text fill="#eeeeee" stroke="none" font-family="Arial" font-size="24px" font-style="normal" font-weight="normal" text-decoration="none" x="600" y="240"></text><text fill="#eeeeee" stroke="none" font-family="Arial" font-size="24px" font-style="normal" font-weight="normal" text-decoration="none" x="600" y="270"></text><text fill="#eeeeee" stroke="none" font-family="Arial" font-size="24px" font-style="normal" font-weight="normal" text-decoration="none" x="600" y="300"></text><text fill="#eeeeee" stroke="none" font-family="Arial" font-size="24px" font-style="normal" font-weight="normal" text-decoration="none" x="600" y="330"></text><text fill="#eeeeee" stroke="none" font-family="Arial" font-size="24px" font-style="normal" font-weight="normal" text-decoration="none" x="600" y="360"></text><text fill="#eeeeee" stroke="none" font-family="Arial" font-size="24px" font-style="normal" font-weight="normal" text-decoration="none" x="600" y="390"></text><text fill="#eeeeee" stroke="none" font-family="Arial" font-size="24px" font-style="normal" font-weight="normal" text-decoration="none" x="600" y="420"></text><text fill="#eeeeee" stroke="none" font-family="Arial" font-size="24px" font-style="normal" font-weight="normal" text-decoration="none" x="600" y="450"></text><text fill="#eeeeee" stroke="none" font-family="Arial" font-size="24px" font-style="normal" font-weight="normal" text-decoration="none" x="600" y="480"></text><text fill="#eeeeee" stroke="none" font-family="Arial" font-size="24px" font-style="normal" font-weight="normal" text-decoration="none" x="600" y="510"></text><text fill="#eeeeee" stroke="none" font-family="Arial" font-size="24px" font-style="normal" font-weight="normal" text-decoration="none" x="600" y="540"></text><text fill="#eeeeee" stroke="none" font-family="Arial" font-size="24px" font-style="normal" font-weight="normal" text-decoration="none" x="600" y="570"></text><text fill="#eeeeee" stroke="none" font-family="Arial" font-size="24px" font-style="normal" font-weight="normal" text-decoration="none" x="600" y="600"></text><text fill="#eeeeee" stroke="none" font-family="Arial" font-size="24px" font-style="normal" font-weight="normal" text-decoration="none" x="600" y="630"></text><text fill="#eeeeee" stroke="none" font-family="Arial" font-size="24px" font-style="normal" font-weight="normal" text-decoration="none" x="600" y="660"></text><text fill="#eeeeee" stroke="none" font-family="Arial" font-size="24px" font-style="normal" font-weight="normal" text-decoration="none" x="600" y="690"></text><text fill="#eeeeee" stroke="none" font-family="Arial" font-size="24px" font-style="normal" font-weight="normal" text-decoration="none" x="600" y="720"></text><text fill="#eeeeee" stroke="none" font-family="Arial" font-size="24px" font-style="normal" font-weight="normal" text-decoration="none" x="600" y="750"></text><text fill="#eeeeee" stroke="none" font-family="Arial" font-size="24px" font-style="normal" font-weight="normal" text-decoration="none" x="800" y="0"></text><text fill="#eeeeee" stroke="none" font-family="Arial" font-size="24px" font-style="normal" font-weight="normal" text-decoration="none" x="800" y="30"></text><text fill="#eeeeee" stroke="none" font-family="Arial" font-size="24px" font-style="normal" font-weight="normal" text-decoration="none" x="800" y="60"></text><text fill="#eeeeee" stroke="none" font-family="Arial" font-size="24px" font-style="normal" font-weight="normal" text-decoration="none" x="800" y="90"></text><text fill="#eeeeee" stroke="none" font-family="Arial" font-size="24px" font-style="normal" font-weight="normal" text-decoration="none" x="800" y="120"></text><text fill="#eeeeee" stroke="none" font-family="Arial" font-size="24px" font-style="normal" font-weight="normal" text-decoration="none" x="800" y="150"></text><text fill="#eeeeee" stroke="none" font-family="Arial" font-size="24px" font-style="normal" font-weight="normal" text-decoration="none" x="800" y="180"></text><text fill="#eeeeee" stroke="none" font-family="Arial" font-size="24px" font-style="normal" font-weight="normal" text-decoration="none" x="800" y="210"></text><text fill="#eeeeee" stroke="none" font-family="Arial" font-size="24px" font-style="normal" font-weight="normal" text-decoration="none" x="800" y="240"></text><text fill="#eeeeee" stroke="none" font-family="Arial" font-size="24px" font-style="normal" font-weight="normal" text-decoration="none" x="800" y="270"></text><text fill="#eeeeee" stroke="none" font-family="Arial" font-size="24px" font-style="normal" font-weight="normal" text-decoration="none" x="800" y="300"></text><text fill="#eeeeee" stroke="none" font-family="Arial" font-size="24px" font-style="normal" font-weight="normal" text-decoration="none" x="800" y="330"></text><text fill="#eeeeee" stroke="none" font-family="Arial" font-size="24px" font-style="normal" font-weight="normal" text-decoration="none" x="800" y="360"></text><text fill="#eeeeee" stroke="none" font-family="Arial" font-size="24px" font-style="normal" font-weight="normal" text-decoration="none" x="800" y="390"></text><text fill="#eeeeee" stroke="none" font-family="Arial" font-size="24px" font-style="normal" font-weight="normal" text-decoration="none" x="800" y="420"></text><text fill="#eeeeee" stroke="none" font-family="Arial" font-size="24px" font-style="normal" font-weight="normal" text-decoration="none" x="800" y="450"></text><text fill="#eeeeee" stroke="none" font-family="Arial" font-size="24px" font-style="normal" font-weight="normal" text-decoration="none" x="800" y="480"></text><text fill="#eeeeee" stroke="none" font-family="Arial" font-size="24px" font-style="normal" font-weight="normal" text-decoration="none" x="800" y="510"></text><text fill="#eeeeee" stroke="none" font-family="Arial" font-size="24px" font-style="normal" font-weight="normal" text-decoration="none" x="800" y="540"></text><text fill="#eeeeee" stroke="none" font-family="Arial" font-size="24px" font-style="normal" font-weight="normal" text-decoration="none" x="800" y="570"></text><text fill="#eeeeee" stroke="none" font-family="Arial" font-size="24px" font-style="normal" font-weight="normal" text-decoration="none" x="800" y="600"></text><text fill="#eeeeee" stroke="none" font-family="Arial" font-size="24px" font-style="normal" font-weight="normal" text-decoration="none" x="800" y="630"></text><text fill="#eeeeee" stroke="none" font-family="Arial" font-size="24px" font-style="normal" font-weight="normal" text-decoration="none" x="800" y="660"></text><text fill="#eeeeee" stroke="none" font-family="Arial" font-size="24px" font-style="normal" font-weight="normal" text-decoration="none" x="800" y="690"></text><text fill="#eeeeee" stroke="none" font-family="Arial" font-size="24px" font-style="normal" font-weight="normal" text-decoration="none" x="800" y="720"></text><text fill="#eeeeee" stroke="none" font-family="Arial" font-size="24px" font-style="normal" font-weight="normal" text-decoration="none" x="800" y="750"></text><g transform="translate(-230,-54) scale(1,1)"><rect fill="#C0C0C0" stroke="none" x="382" y="359" width="272.4" height="15" opacity="0.2"/></g><g transform="translate(-230,-54) scale(1,1)"><rect fill="#C0C0C0" stroke="none" x="382" y="373" width="681" height="442" opacity="0.2"/></g><g transform="translate(-230,-54) scale(1,1)"><rect fill="#ffffff" stroke="none" x="375" y="367" width="681" height="441"/></g><g transform="translate(-230,-54) scale(1,1)"><path fill="none" stroke="#000000" d="M 375 367 L 1056 367 L 1056 808 L 375 808 L 375 367 Z Z" stroke-miterlimit="10"/></g><g transform="translate(-230,-54) scale(1,1)"><rect fill="#ffffff" stroke="none" x="375" y="352" width="272.4" height="15"/></g><g transform="translate(-230,-54) scale(1,1)"><path fill="none" stroke="#000000" d="M 375 352 L 647.4 352 L 647.4 367 L 375 367 L 375 352 Z Z" stroke-miterlimit="10"/></g><g transform="translate(-230,-54) scale(1,1)"><rect fill="#ffffff" stroke="none" x="375" y="366" width="681" height="442"/></g><g transform="translate(-230,-54) scale(1,1)"><path fill="none" stroke="#000000" d="M 375 366 L 1056 366 L 1056 808 L 375 808 L 375 366 Z Z" stroke-miterlimit="10"/></g><g transform="translate(-230,-54) scale(1,1)"><g><path fill="none" stroke="none"/><text fill="#000000" stroke="none" font-family="Arial" font-size="13px" font-style="normal" font-weight="bold" text-decoration="none" x="679.73095703125" y="386.5">Model Layer</text></g></g><g transform="translate(-230,-54) scale(1,1)"><rect fill="#C0C0C0" stroke="none" x="382" y="207" width="272.4" height="15" opacity="0.2"/></g><g transform="translate(-230,-54) scale(1,1)"><rect fill="#C0C0C0" stroke="none" x="382" y="221" width="681" height="106" opacity="0.2"/></g><g transform="translate(-230,-54) scale(1,1)"><rect fill="#ffffff" stroke="none" x="375" y="215" width="681" height="105"/></g><g transform="translate(-230,-54) scale(1,1)"><path fill="none" stroke="#000000" d="M 375 215 L 1056 215 L 1056 320 L 375 320 L 375 215 Z Z" stroke-miterlimit="10"/></g><g transform="translate(-230,-54) scale(1,1)"><rect fill="#ffffff" stroke="none" x="375" y="200" width="272.4" height="15"/></g><g transform="translate(-230,-54) scale(1,1)"><path fill="none" stroke="#000000" d="M 375 200 L 647.4 200 L 647.4 215 L 375 215 L 375 200 Z Z" stroke-miterlimit="10"/></g><g transform="translate(-230,-54) scale(1,1)"><rect fill="#ffffff" stroke="none" x="375" y="214" width="681" height="106"/></g><g transform="translate(-230,-54) scale(1,1)"><path fill="none" stroke="#000000" d="M 375 214 L 1056 214 L 1056 320 L 375 320 L 375 214 Z Z" stroke-miterlimit="10"/></g><g transform="translate(-230,-54) scale(1,1)"><g><path fill="none" stroke="none"/><text fill="#000000" stroke="none" font-family="Arial" font-size="13px" font-style="normal" font-weight="bold" text-decoration="none" x="669.25732421875" y="234.5">Controller Layer</text></g></g><g transform="translate(-230,-54) scale(1,1)"><rect fill="#C0C0C0" stroke="none" x="382" y="71" width="272.4" height="15" opacity="0.2"/></g><g transform="translate(-230,-54) scale(1,1)"><rect fill="#C0C0C0" stroke="none" x="382" y="85" width="681" height="98" opacity="0.2"/></g><g transform="translate(-230,-54) scale(1,1)"><rect fill="#ffffff" stroke="none" x="375" y="79" width="681" height="97"/></g><g transform="translate(-230,-54) scale(1,1)"><path fill="none" stroke="#000000" d="M 375 79 L 1056 79 L 1056 176 L 375 176 L 375 79 Z Z" stroke-miterlimit="10"/></g><g transform="translate(-230,-54) scale(1,1)"><rect fill="#ffffff" stroke="none" x="375" y="64" width="272.4" height="15"/></g><g transform="translate(-230,-54) scale(1,1)"><path fill="none" stroke="#000000" d="M 375 64 L 647.4 64 L 647.4 79 L 375 79 L 375 64 Z Z" stroke-miterlimit="10"/></g><g transform="translate(-230,-54) scale(1,1)"><rect fill="#ffffff" stroke="none" x="375" y="78" width="681" height="98"/></g><g transform="translate(-230,-54) scale(1,1)"><path fill="none" stroke="#000000" d="M 375 78 L 1056 78 L 1056 176 L 375 176 L 375 78 Z Z" stroke-miterlimit="10"/></g><g transform="translate(-230,-54) scale(1,1)"><g><path fill="none" stroke="none"/><text fill="#000000" stroke="none" font-family="Arial" font-size="13px" font-style="normal" font-weight="bold" text-decoration="none" x="683.46337890625" y="98.5">View Layer</text></g></g><g transform="translate(-230,-54) scale(1,1)"><rect fill="#C0C0C0" stroke="none" x="247" y="265" width="62.4599609375" height="24" opacity="0.2"/></g><g transform="translate(-230,-54) scale(1,1)"><rect fill="#ffffff" stroke="none" x="240" y="258" width="62.4599609375" height="24"/></g><g transform="translate(-230,-54) scale(1,1)"><path fill="none" stroke="#000000" d="M 240 258 L 302.4599609375 258 L 302.4599609375 282 L 240 282 L 240 258 Z Z" stroke-miterlimit="10"/></g><g transform="translate(-230,-54) scale(1,1)"><g><path fill="none" stroke="none"/><text fill="#000000" stroke="none" font-family="Arial" font-size="13px" font-style="normal" font-weight="bold" text-decoration="none" x="246.305908203125" y="277.5">Program</text></g></g><g transform="translate(-230,-54) scale(1,1)"><path fill="none" stroke="#000000" d="M 752 552 L 811 626" stroke-miterlimit="10"/></g><g transform="translate(-230,-54) scale(1,1)"><path fill="#FFFFFF" stroke="none" d="M 791.746230389767 615.356111810242 L 811 626 L 804.91189446237 604.8591634280315"/></g><g transform="translate(-230,-54) scale(1,1)"><path fill="none" stroke="#000000" d="M 791.746230389767 615.356111810242 L 811 626 L 804.91189446237 604.8591634280315 L 791.746230389767 615.356111810242" stroke-miterlimit="10"/></g><g transform="translate(-230,-54) scale(1,1)"><path fill="none" stroke="#000000" d="M 884 552 L 831 626" stroke-miterlimit="10"/></g><g transform="translate(-230,-54) scale(1,1)"><path fill="#FFFFFF" stroke="none" d="M 835.9903872683316 604.5734735686796 L 831 626 L 849.6795788150438 614.3778945413247"/></g><g transform="translate(-230,-54) scale(1,1)"><path fill="none" stroke="#000000" d="M 835.9903872683316 604.5734735686796 L 831 626 L 849.6795788150438 614.3778945413247 L 835.9903872683316 604.5734735686796" stroke-miterlimit="10"/></g><g transform="translate(-230,-54) scale(1,1)"><path fill="none" stroke="#000000" d="M 864 447 L 889 526" stroke-miterlimit="10"/></g><g transform="translate(-230,-54) scale(1,1)"><path fill="#FFFFFF" stroke="none" d="M 874.840951996158 509.16190748258884 L 889 526 L 890.8943705426453 504.08171174002956"/></g><g transform="translate(-230,-54) scale(1,1)"><path fill="none" stroke="#000000" d="M 874.840951996158 509.16190748258884 L 889 526 L 890.8943705426453 504.08171174002956 L 874.840951996158 509.16190748258884" stroke-miterlimit="10"/></g><g transform="translate(-230,-54) scale(1,1)"><path fill="none" stroke="#000000" d="M 443 626 L 498 552" stroke-miterlimit="10"/></g><g transform="translate(-230,-54) scale(1,1)"><path fill="#FFFFFF" stroke="none" d="M 492.6325276656464 573.335187853402 L 498 552 L 479.118367905518 563.2908799235768"/></g><g transform="translate(-230,-54) scale(1,1)"><path fill="none" stroke="#000000" d="M 492.6325276656464 573.335187853402 L 498 552 L 479.118367905518 563.2908799235768 L 492.6325276656464 573.335187853402" stroke-miterlimit="10"/></g><g transform="translate(-230,-54) scale(1,1)"><path fill="none" stroke="#000000" d="M 564 626 L 516 552" stroke-miterlimit="10"/></g><g transform="translate(-230,-54) scale(1,1)"><path fill="#FFFFFF" stroke="none" d="M 534.1241193917709 564.4706173172314 L 516 552 L 519.9976296543591 573.6337457955526"/></g><g transform="translate(-230,-54) scale(1,1)"><path fill="none" stroke="#000000" d="M 534.1241193917709 564.4706173172314 L 516 552 L 519.9976296543591 573.6337457955526 L 534.1241193917709 564.4706173172314" stroke-miterlimit="10"/></g><g transform="translate(-230,-54) scale(1,1)"><path fill="none" stroke="#000000" d="M 676 750 L 584 652" stroke-miterlimit="10"/></g><g transform="translate(-230,-54) scale(1,1)"><path fill="#FFFFFF" stroke="none" d="M 604.0494909509025 661.0563741425406 L 584 652 L 591.7733074415686 672.5809545798744"/></g><g transform="translate(-230,-54) scale(1,1)"><path fill="none" stroke="#000000" d="M 604.0494909509025 661.0563741425406 L 584 652 L 591.7733074415686 672.5809545798744 L 604.0494909509025 661.0563741425406" stroke-miterlimit="10"/></g><g transform="translate(-230,-54) scale(1,1)"><path fill="none" stroke="#000000" d="M 521 750 L 566 652" stroke-miterlimit="10"/></g><g transform="translate(-230,-54) scale(1,1)"><path fill="#FFFFFF" stroke="none" d="M 565.1693522794062 673.9843131428815 L 566 652 L 549.8673864609309 666.9579002670511"/></g><g transform="translate(-230,-54) scale(1,1)"><path fill="none" stroke="#000000" d="M 565.1693522794062 673.9843131428815 L 566 652 L 549.8673864609309 666.9579002670511 L 565.1693522794062 673.9843131428815" stroke-miterlimit="10"/></g><g transform="translate(-230,-54) scale(1,1)"><path fill="none" stroke="#000000" d="M 459 434 L 570 434" stroke-miterlimit="10"/></g><g transform="translate(-230,-54) scale(1,1)"><path fill="none" stroke="#000000" d="M 559.8373251423759 438.209517756016 L 570 434 L 559.8373251423758 429.790482243984" stroke-miterlimit="10"/></g><g transform="translate(-230,-54) scale(1,1)"><g><path fill="none" stroke="none"/><text fill="#000000" stroke="none" font-family="Arial" font-size="13px" font-style="normal" font-weight="normal" text-decoration="none" x="543.5" y="427.5">1</text></g></g><g transform="translate(-230,-54) scale(1,1)"><path fill="none" stroke="#000000" d="M 435 283 L 435 421" stroke-miterlimit="10"/></g><g transform="translate(-230,-54) scale(1,1)"><path fill="none" stroke="#000000" d="M 430.790482243984 410.83732514237585 L 435 421 L 439.209517756016 410.83732514237585" stroke-miterlimit="10"/></g><g transform="translate(-230,-54) scale(1,1)"><g><path fill="none" stroke="none"/><text fill="#000000" stroke="none" font-family="Arial" font-size="13px" font-style="normal" font-weight="normal" text-decoration="none" x="418.66455078125" y="405.5">1</text></g></g><g transform="translate(-230,-54) scale(1,1)"><path fill="none" stroke="#000000" d="M 303 270 L 399 270" stroke-miterlimit="10"/></g><g transform="translate(-230,-54) scale(1,1)"><path fill="none" stroke="#000000" d="M 388.83732514237585 274.209517756016 L 399 270 L 388.83732514237585 265.790482243984" stroke-miterlimit="10"/></g><g transform="translate(-230,-54) scale(1,1)"><g><path fill="none" stroke="none"/><text fill="#000000" stroke="none" font-family="Arial" font-size="13px" font-style="normal" font-weight="normal" text-decoration="none" x="383.5" y="288.5">1</text></g></g><g transform="translate(-230,-54) scale(1,1)"><path fill="none" stroke="#000000" d="M 447 421 L 579 283" stroke-miterlimit="10"/></g><g transform="translate(-230,-54) scale(1,1)"><path fill="none" stroke="#000000" d="M 575.0173027237106 293.25368823426174 L 579 283 L 568.9333552659034 287.43426023114176" stroke-miterlimit="10"/></g><g transform="translate(-230,-54) scale(1,1)"><g><path fill="none" stroke="none"/><text fill="#000000" stroke="none" font-family="Arial" font-size="13px" font-style="normal" font-weight="normal" text-decoration="none" x="569.5" y="313.5">1</text></g></g><g transform="translate(-230,-54) scale(1,1)"><path fill="none" stroke="#000000" d="M 581 447 L 518 526" stroke-miterlimit="10"/></g><g transform="translate(-230,-54) scale(1,1)"><g><path fill="none" stroke="none"/><text fill="#000000" stroke="none" font-family="Arial" font-size="13px" font-style="normal" font-weight="normal" text-decoration="none" x="542.5" y="473.5">1</text></g></g><g transform="translate(-230,-54) scale(1,1)"><g><path fill="none" stroke="none"/><text fill="#000000" stroke="none" font-family="Arial" font-size="13px" font-style="normal" font-weight="normal" text-decoration="none" x="510.74365234375" y="507.5">1..*</text></g></g><g transform="translate(-230,-54) scale(1,1)"><path fill="none" stroke="#000000" d="M 595 447 L 684 750" stroke-miterlimit="10"/></g><g transform="translate(-230,-54) scale(1,1)"><path fill="none" stroke="#000000" d="M 677.0970297408389 741.4355968333375 L 684 750 L 685.1748104753808 739.0629153634555" stroke-miterlimit="10"/></g><g transform="translate(-230,-54) scale(1,1)"><g><path fill="none" stroke="none"/><text fill="#000000" stroke="none" font-family="Arial" font-size="13px" font-style="normal" font-weight="normal" text-decoration="none" x="682.74365234375" y="729.5">1..*</text></g></g><g transform="translate(-230,-54) scale(1,1)"><path fill="none" stroke="#000000" d="M 613 442 L 871 531" stroke-miterlimit="10"/></g><g transform="translate(-230,-54) scale(1,1)"><path fill="none" stroke="#000000" d="M 860.020138651367 531.6653155377682 L 871 531 L 862.765616455509 523.7065147122782" stroke-miterlimit="10"/></g><g transform="translate(-230,-54) scale(1,1)"><g><path fill="none" stroke="none"/><text fill="#000000" stroke="none" font-family="Arial" font-size="13px" font-style="normal" font-weight="normal" text-decoration="none" x="842.641357421875" y="541.5">1</text></g></g><g transform="translate(-230,-54) scale(1,1)"><path fill="none" stroke="#000000" d="M 610 447 L 722 526" stroke-miterlimit="10"/></g><g transform="translate(-230,-54) scale(1,1)"><path fill="none" stroke="#000000" d="M 711.2690146468218 523.582159362184 L 722 526 L 716.1217189987823 516.702375977126" stroke-miterlimit="10"/></g><g transform="translate(-230,-54) scale(1,1)"><g><path fill="none" stroke="none"/><text fill="#000000" stroke="none" font-family="Arial" font-size="13px" font-style="normal" font-weight="normal" text-decoration="none" x="686.74365234375" y="529.5">1..*</text></g></g><g transform="translate(-230,-54) scale(1,1)"><path fill="none" stroke="#000000" d="M 435 257 L 435 144" stroke-miterlimit="10"/></g><g transform="translate(-230,-54) scale(1,1)"><path fill="none" stroke="#000000" d="M 439.209517756016 154.16267485762415 L 435 144 L 430.790482243984 154.16267485762415" stroke-miterlimit="10"/></g><g transform="translate(-230,-54) scale(1,1)"><path fill="none" stroke="#000000" d="M 450 257 L 576 144" stroke-miterlimit="10"/></g><g transform="translate(-230,-54) scale(1,1)"><path fill="none" stroke="#000000" d="M 571.2447301169512 153.91904271285136 L 576 144 L 565.6236940541879 147.6513387844603" stroke-miterlimit="10"/></g><g transform="translate(-230,-54) scale(1,1)"><rect fill="#C0C0C0" stroke="none" x="407" y="126" width="70.1533203125" height="24" opacity="0.2"/></g><g transform="translate(-230,-54) scale(1,1)"><rect fill="#ffffff" stroke="none" x="400" y="119" width="70.1533203125" height="24"/></g><g transform="translate(-230,-54) scale(1,1)"><path fill="none" stroke="#000000" d="M 400 119 L 470.1533203125 119 L 470.1533203125 143 L 400 143 L 400 119 Z Z" stroke-miterlimit="10"/></g><g transform="translate(-230,-54) scale(1,1)"><g><path fill="none" stroke="none"/><text fill="#000000" stroke="none" font-family="Arial" font-size="13px" font-style="normal" font-weight="bold" text-decoration="none" x="406.648681640625" y="138.5">InputView</text></g></g><g transform="translate(-230,-54) scale(1,1)"><rect fill="#C0C0C0" stroke="none" x="558" y="126" width="80.982421875" height="24" opacity="0.2"/></g><g transform="translate(-230,-54) scale(1,1)"><rect fill="#ffffff" stroke="none" x="551" y="119" width="80.982421875" height="24"/></g><g transform="translate(-230,-54) scale(1,1)"><path fill="none" stroke="#000000" d="M 551 119 L 631.982421875 119 L 631.982421875 143 L 551 143 L 551 119 Z Z" stroke-miterlimit="10"/></g><g transform="translate(-230,-54) scale(1,1)"><g><path fill="none" stroke="none"/><text fill="#000000" stroke="none" font-family="Arial" font-size="13px" font-style="normal" font-weight="bold" text-decoration="none" x="558.00732421875" y="138.5">OutputView</text></g></g><g transform="translate(-230,-54) scale(1,1)"><rect fill="#C0C0C0" stroke="none" x="407" y="265" width="71.11181640625" height="24" opacity="0.2"/></g><g transform="translate(-230,-54) scale(1,1)"><rect fill="#ffffff" stroke="none" x="400" y="258" width="71.11181640625" height="24"/></g><g transform="translate(-230,-54) scale(1,1)"><path fill="none" stroke="#000000" d="M 400 258 L 471.11181640625 258 L 471.11181640625 282 L 400 282 L 400 258 Z Z" stroke-miterlimit="10"/></g><g transform="translate(-230,-54) scale(1,1)"><g><path fill="none" stroke="none"/><text fill="#000000" stroke="none" font-family="Arial" font-size="13px" font-style="normal" font-weight="bold" text-decoration="none" x="407.378662109375" y="277.5">Controller</text></g></g><g transform="translate(-230,-54) scale(1,1)"><rect fill="#C0C0C0" stroke="none" x="574" y="265" width="49.47900390625" height="24" opacity="0.2"/></g><g transform="translate(-230,-54) scale(1,1)"><rect fill="#ffffff" stroke="none" x="567" y="258" width="49.47900390625" height="24"/></g><g transform="translate(-230,-54) scale(1,1)"><path fill="none" stroke="#000000" d="M 567 258 L 616.47900390625 258 L 616.47900390625 282 L 567 282 L 567 258 Z Z" stroke-miterlimit="10"/></g><g transform="translate(-230,-54) scale(1,1)"><g><path fill="none" stroke="none"/><text fill="#000000" stroke="none" font-family="Arial" font-size="13px" font-style="normal" font-weight="bold" text-decoration="none" x="572.594970703125" y="277.5">Parser</text></g></g><g transform="translate(-230,-54) scale(1,1)"><rect fill="#C0C0C0" stroke="none" x="420" y="429" width="45.130859375" height="24" opacity="0.2"/></g><g transform="translate(-230,-54) scale(1,1)"><rect fill="#ffffff" stroke="none" x="413" y="422" width="45.130859375" height="24"/></g><g transform="translate(-230,-54) scale(1,1)"><path fill="none" stroke="#000000" d="M 413 422 L 458.130859375 422 L 458.130859375 446 L 413 446 L 413 422 Z Z" stroke-miterlimit="10"/></g><g transform="translate(-230,-54) scale(1,1)"><g><path fill="none" stroke="none"/><text fill="#000000" stroke="none" font-family="Arial" font-size="13px" font-style="normal" font-weight="bold" text-decoration="none" x="417.864990234375" y="441.5">Game</text></g></g><g transform="translate(-230,-54) scale(1,1)"><rect fill="#C0C0C0" stroke="none" x="578" y="429" width="40.7890625" height="24" opacity="0.2"/></g><g transform="translate(-230,-54) scale(1,1)"><rect fill="#ffffff" stroke="none" x="571" y="422" width="40.7890625" height="24"/></g><g transform="translate(-230,-54) scale(1,1)"><path fill="none" stroke="#000000" d="M 571 422 L 611.7890625 422 L 611.7890625 446 L 571 446 L 571 422 Z Z" stroke-miterlimit="10"/></g><g transform="translate(-230,-54) scale(1,1)"><g><path fill="none" stroke="none"/><text fill="#000000" stroke="none" font-family="Arial" font-size="13px" font-style="normal" font-weight="bold" text-decoration="none" x="575.5" y="441.5">Maze</text></g></g><g transform="translate(-230,-54) scale(1,1)"><rect fill="#C0C0C0" stroke="none" x="495" y="534" width="41.5" height="24" opacity="0.2"/></g><g transform="translate(-230,-54) scale(1,1)"><rect fill="#ffffff" stroke="none" x="488" y="527" width="41.5" height="24"/></g><g transform="translate(-230,-54) scale(1,1)"><path fill="none" stroke="#000000" d="M 488 527 L 529.5 527 L 529.5 551 L 488 551 L 488 527 Z Z" stroke-miterlimit="10"/></g><g transform="translate(-230,-54) scale(1,1)"><g><path fill="none" stroke="none"/><text fill="#000000" stroke="none" font-family="Arial" font-size="13px" font-style="normal" font-weight="bold" text-decoration="none" x="493.2109375" y="546.5">Node</text></g></g><g transform="translate(-230,-54) scale(1,1)"><rect fill="#C0C0C0" stroke="none" x="727" y="534" width="42.236328125" height="24" opacity="0.2"/></g><g transform="translate(-230,-54) scale(1,1)"><rect fill="#ffffff" stroke="none" x="720" y="527" width="42.236328125" height="24"/></g><g transform="translate(-230,-54) scale(1,1)"><path fill="none" stroke="#000000" d="M 720 527 L 762.236328125 527 L 762.236328125 551 L 720 551 L 720 527 Z Z" stroke-miterlimit="10"/></g><g transform="translate(-230,-54) scale(1,1)"><g><path fill="none" stroke="none"/><text fill="#000000" stroke="none" font-family="Arial" font-size="13px" font-style="normal" font-weight="bold" text-decoration="none" x="725.2236328125" y="546.5">Crate</text></g></g><g transform="translate(-230,-54) scale(1,1)"><rect fill="#C0C0C0" stroke="none" x="879" y="534" width="43.68359375" height="24" opacity="0.2"/></g><g transform="translate(-230,-54) scale(1,1)"><rect fill="#ffffff" stroke="none" x="872" y="527" width="43.68359375" height="24"/></g><g transform="translate(-230,-54) scale(1,1)"><path fill="none" stroke="#000000" d="M 872 527 L 915.68359375 527 L 915.68359375 551 L 872 551 L 872 527 Z Z" stroke-miterlimit="10"/></g><g transform="translate(-230,-54) scale(1,1)"><g><path fill="none" stroke="none"/><text fill="#000000" stroke="none" font-family="Arial" font-size="13px" font-style="normal" font-weight="bold" text-decoration="none" x="877.8330078125" y="546.5">Truck</text></g></g><g transform="translate(-230,-54) scale(1,1)"><rect fill="#C0C0C0" stroke="none" x="799" y="634" width="61.0126953125" height="24" opacity="0.2"/></g><g transform="translate(-230,-54) scale(1,1)"><rect fill="#ffffff" stroke="none" x="792" y="627" width="61.0126953125" height="24"/></g><g transform="translate(-230,-54) scale(1,1)"><path fill="none" stroke="#000000" d="M 792 627 L 853.0126953125 627 L 853.0126953125 651 L 792 651 L 792 627 Z Z" stroke-miterlimit="10"/></g><g transform="translate(-230,-54) scale(1,1)"><g><path fill="none" stroke="none"/><text fill="#000000" stroke="none" font-family="Arial" font-size="13px" font-style="normal" font-weight="bold" text-decoration="none" x="797.937744140625" y="646.5">Movable</text></g></g><g transform="translate(-230,-54) scale(1,1)"><rect fill="#C0C0C0" stroke="none" x="839" y="429" width="56.68359375" height="24" opacity="0.2"/></g><g transform="translate(-230,-54) scale(1,1)"><rect fill="#ffffff" stroke="none" x="832" y="422" width="56.68359375" height="24"/></g><g transform="translate(-230,-54) scale(1,1)"><path fill="none" stroke="#000000" d="M 832 422 L 888.68359375 422 L 888.68359375 446 L 832 446 L 832 422 Z Z" stroke-miterlimit="10"/></g><g transform="translate(-230,-54) scale(1,1)"><g><path fill="none" stroke="none"/><text fill="#000000" stroke="none" font-family="Arial" font-size="13px" font-style="normal" font-weight="bold" text-decoration="none" x="838.191650390625" y="441.5">AITruck</text></g></g><g transform="translate(-230,-54) scale(1,1)"><rect fill="#C0C0C0" stroke="none" x="407" y="634" width="67.7412109375" height="24" opacity="0.2"/></g><g transform="translate(-230,-54) scale(1,1)"><rect fill="#ffffff" stroke="none" x="400" y="627" width="67.7412109375" height="24"/></g><g transform="translate(-230,-54) scale(1,1)"><path fill="none" stroke="#000000" d="M 400 627 L 467.7412109375 627 L 467.7412109375 651 L 400 651 L 400 627 Z Z" stroke-miterlimit="10"/></g><g transform="translate(-230,-54) scale(1,1)"><g><path fill="none" stroke="none"/><text fill="#000000" stroke="none" font-family="Arial" font-size="13px" font-style="normal" font-weight="bold" text-decoration="none" x="405.9345703125" y="646.5">WallNode</text></g></g><g transform="translate(-230,-54) scale(1,1)"><rect fill="#C0C0C0" stroke="none" x="543" y="634" width="73.99365234375" height="24" opacity="0.2"/></g><g transform="translate(-230,-54) scale(1,1)"><rect fill="#ffffff" stroke="none" x="536" y="627" width="73.99365234375" height="24"/></g><g transform="translate(-230,-54) scale(1,1)"><path fill="none" stroke="#000000" d="M 536 627 L 609.99365234375 627 L 609.99365234375 651 L 536 651 L 536 627 Z Z" stroke-miterlimit="10"/></g><g transform="translate(-230,-54) scale(1,1)"><g><path fill="none" stroke="none"/><text fill="#000000" stroke="none" font-family="Arial" font-size="13px" font-style="normal" font-weight="bold" text-decoration="none" x="542.648681640625" y="646.5">FloorNode</text></g></g><g transform="translate(-230,-54) scale(1,1)"><rect fill="#C0C0C0" stroke="none" x="639" y="758" width="112.28271484375" height="24" opacity="0.2"/></g><g transform="translate(-230,-54) scale(1,1)"><rect fill="#ffffff" stroke="none" x="632" y="751" width="112.28271484375" height="24"/></g><g transform="translate(-230,-54) scale(1,1)"><path fill="none" stroke="#000000" d="M 632 751 L 744.28271484375 751 L 744.28271484375 775 L 632 775 L 632 751 Z Z" stroke-miterlimit="10"/></g><g transform="translate(-230,-54) scale(1,1)"><g><path fill="none" stroke="none"/><text fill="#000000" stroke="none" font-family="Arial" font-size="13px" font-style="normal" font-weight="bold" text-decoration="none" x="640.083251953125" y="770.5">DestinationNode</text></g></g><g transform="translate(-230,-54) scale(1,1)"><rect fill="#C0C0C0" stroke="none" x="463" y="758" width="118.78271484375" height="24" opacity="0.2"/></g><g transform="translate(-230,-54) scale(1,1)"><rect fill="#ffffff" stroke="none" x="456" y="751" width="118.78271484375" height="24"/></g><g transform="translate(-230,-54) scale(1,1)"><path fill="none" stroke="#000000" d="M 456 751 L 574.78271484375 751 L 574.78271484375 775 L 456 775 L 456 751 Z Z" stroke-miterlimit="10"/></g><g transform="translate(-230,-54) scale(1,1)"><g><path fill="none" stroke="none"/><text fill="#000000" stroke="none" font-family="Arial" font-size="13px" font-style="normal" font-weight="bold" text-decoration="none" x="464.4482421875" y="770.5">BrokenFloorNode</text></g></g><g transform="translate(-230,-54) scale(1,1)"><rect fill="#C0C0C0" stroke="none" x="703" y="259" width="95.72802734375" height="37" opacity="0.2"/></g><g transform="translate(-230,-54) scale(1,1)"><rect fill="#ffffff" stroke="none" x="696" y="252" width="95.72802734375" height="37"/></g><g transform="translate(-230,-54) scale(1,1)"><path fill="none" stroke="#000000" d="M 696 252 L 791.72802734375 252 L 791.72802734375 289 L 696 289 L 696 252 Z Z" stroke-miterlimit="10"/></g><g transform="translate(-230,-54) scale(1,1)"><g><path fill="none" stroke="none"/><text fill="#000000" stroke="none" font-family="Arial" font-size="13px" font-style="normal" font-weight="normal" text-decoration="none" x="700.5" y="269.5">«enumeration»</text></g></g><g transform="translate(-230,-54) scale(1,1)"><g><path fill="none" stroke="none"/><text fill="#000000" stroke="none" font-family="Arial" font-size="13px" font-style="normal" font-weight="bold" text-decoration="none" x="708.09814453125" y="284.5">GameAction</text></g></g><g transform="translate(-230,-54) scale(1,1)"><rect fill="#C0C0C0" stroke="none" x="959" y="423" width="72.578125" height="37" opacity="0.2"/></g><g transform="translate(-230,-54) scale(1,1)"><rect fill="#ffffff" stroke="none" x="952" y="416" width="72.578125" height="37"/></g><g transform="translate(-230,-54) scale(1,1)"><path fill="none" stroke="#000000" d="M 952 416 L 1024.578125 416 L 1024.578125 453 L 952 453 L 952 416 Z Z" stroke-miterlimit="10"/></g><g transform="translate(-230,-54) scale(1,1)"><g><path fill="none" stroke="none"/><text fill="#000000" stroke="none" font-family="Arial" font-size="13px" font-style="normal" font-weight="normal" text-decoration="none" x="965.167724609375" y="433.5">«struct»</text></g></g><g transform="translate(-230,-54) scale(1,1)"><g><path fill="none" stroke="none"/><text fill="#000000" stroke="none" font-family="Arial" font-size="13px" font-style="normal" font-weight="bold" text-decoration="none" x="957.21728515625" y="448.5">MazeState</text></g></g><g transform="translate(-230,-54) scale(1,1)"><path fill="none" stroke="#000000" d="M 613 434 L 831 434" stroke-miterlimit="10"/></g><g transform="translate(-230,-54) scale(1,1)"><path fill="none" stroke="#000000" d="M 820.8373251423759 438.209517756016 L 831 434 L 820.8373251423758 429.790482243984" stroke-miterlimit="10"/></g><g transform="translate(-230,-54) scale(1,1)"><g><path fill="none" stroke="none"/><text fill="#000000" stroke="none" font-family="Arial" font-size="13px" font-style="normal" font-weight="normal" text-decoration="none" x="798.74365234375" y="452.5">0..*</text></g></g></g></svg>